<svg id="Layer_1" width="48px" height="48px" enable-background="new 0 0 512 512" viewBox="0 0 512 512"
  xmlns="http://www.w3.org/2000/svg">
  <g>
    <g>
      <g>
        <path
          d="m256.004 40.928c-118.781 0-215.07 96.294-215.07 215.074 0 118.776 96.289 215.068 215.07 215.068 118.773 0 215.066-96.292 215.066-215.068 0-118.78-96.293-215.074-215.066-215.074z"
          fill="#edf3fc" />
      </g>
    </g>
    <g>
      <g>
        <path
          d="m256.004 1c-140.611 0-255.004 114.393-255.004 255.002 0 140.607 114.393 254.998 255.004 254.998 140.607 0 254.996-114.391 254.996-254.998 0-140.609-114.389-255.002-254.996-255.002zm0 501.831c-136.105 0-246.832-110.727-246.832-246.829 0-136.105 110.727-246.833 246.832-246.833 136.102 0 246.824 110.729 246.824 246.833 0 136.102-110.723 246.829-246.824 246.829z"
          fill="#edf3fc" />
      </g>
    </g>
    <g>
      <g>
        <path
          d="m334.12 237.55c-9.664 5.328-40.968 10.63-78.12 10.63-37.153 0-68.457-5.302-78.12-10.63-11.841 16.077-18.842 35.938-18.842 57.436 0 53.552 43.412 96.959 96.96 96.959 53.552 0 96.966-43.407 96.966-96.959-.001-21.499-7.003-41.359-18.844-57.436z"
          fill="#ffbe1b" />
      </g>
    </g>
    <g>
      <g>
        <path
          d="m308.313 244.414c-14.133 2.237-32.379 3.766-52.313 3.766-19.936 0-38.184-1.528-52.317-3.767-12.663 13.095-20.469 30.917-20.469 50.573 0 40.196 32.587 72.784 72.783 72.784 40.197 0 72.782-32.588 72.782-72.784 0-19.656-7.804-37.477-20.466-50.572z"
          fill="#ffe37b" />
      </g>
    </g>
    <g>
      <g>
        <path
          d="m285.342 299.526c-2.598-2.994-6.077-4.967-10.455-5.908 1.211-.536 2.055-.923 2.525-1.163.469-.232 1.314-.824 2.525-1.767 3.57-2.691 5.352-6.802 5.352-12.324 0-4.58-1.58-8.682-4.745-12.316-1.75-1.956-4.362-3.503-7.831-4.655-1.031-.34-2.145-.615-3.303-.85v-8.982h-12.385v8.119h-8.309v-8.119h-12.393v8.119h-3.461-10.099v13.332h10.099v43.94h-10.099v13.338h10.099 3.461v8.124h12.393v-8.124h8.309v8.124h12.385v-8.426c6.737-.728 11.674-2.796 14.771-6.26 3.364-3.771 5.049-8.116 5.049-13.035-.001-4.445-1.297-8.163-3.888-11.167zm-36.716-26.514h7.574c4.647 0 7.94.507 9.893 1.516 1.957 1.007 2.931 3.075 2.931 6.212 0 3.129-1.059 5.171-3.179 6.109-2.125.944-5.374 1.415-9.743 1.415h-7.476zm20.959 42.274c-2.263 1.114-5.645 1.665-10.155 1.665h-10.804v-16.255h9.292c5.249 0 9.071.52 11.461 1.56 2.393 1.048 3.59 3.202 3.59 6.468 0 3.263-1.129 5.452-3.384 6.562z"
          fill="#fff" />
      </g>
    </g>
    <g>
      <g>
        <path
          d="m254.082 207.105c-.545.143-1.123.138-1.666-.012l-77.635-21.243v48.43c0 6.171 36.363 13.899 81.219 13.899 44.855 0 81.219-7.729 81.219-13.899v-48.841z"
          fill="#330d84" />
      </g>
    </g>
    <g>
      <g>
        <path
          d="m368.852 172.003-114.77-29.905c-.545-.142-1.123-.14-1.666.01l-109.306 29.906c-2.813.77-2.813 4.403 0 5.172l8.32 2.276c.798-1.09 2.016-1.861 3.448-2.026l89.791-10.336c-1.433 1.185-2.296 2.689-2.296 4.33 0 2.261 1.638 4.262 4.157 5.52l-73.399 8.449 79.285 21.694c.543.149 1.121.154 1.666.012l114.77-29.909c2.864-.745 2.864-4.446 0-5.193z"
          fill="#6857e5" />
      </g>
    </g>
    <g>
      <g>
        <path
          d="m242.373 171.43c0-1.641.862-3.146 2.296-4.33l-89.791 10.336c-2.523.29-4.428 2.427-4.428 4.967v30.382c1.289-1.542 3.073-2.497 5.043-2.497 1.929 0 3.675.916 4.957 2.399v-25.827l86.081-9.909c-2.52-1.26-4.158-3.261-4.158-5.521z"
          fill="#8ac9f9" />
      </g>
    </g>
    <g>
      <g>
        <path
          d="m162.61 218.764c0-4.685-3.186-8.477-7.117-8.477-3.928 0-7.117 3.792-7.117 8.477 0 0-5.081 25.809-3.562 27.225 2.662 2.476 18.985 3.172 21.358 0 1.288-1.725-3.562-27.225-3.562-27.225z"
          fill="#ffbe1b" />
      </g>
    </g>
    <g>
      <g>
        <path
          d="m252.73 164.524c-5.72 0-10.357 3.092-10.357 6.905s4.637 6.903 10.357 6.903 10.356-3.091 10.356-6.903c0-3.813-4.637-6.905-10.356-6.905z"
          fill="#ffbe1b" />
      </g>
    </g>
    <g>
      <g>
        <path
          d="m369.408 129.472c-11.359-2.848-20.227-11.719-23.074-23.074l-.486-1.939-.484 1.939c-2.848 11.355-11.715 20.227-23.074 23.074l-1.939.484 1.939.484c11.359 2.846 20.227 11.717 23.074 23.074l.484 1.939.486-1.939c2.848-11.357 11.715-20.229 23.074-23.074l1.941-.484z"
          fill="#330d84" />
      </g>
    </g>
    <g>
      <g>
        <path
          d="m381.673 353.932c-9.733-2.436-17.332-10.037-19.771-19.771l-.419-1.658-.416 1.658c-2.438 9.734-10.039 17.336-19.772 19.771l-1.66.42 1.66.416c9.732 2.438 17.334 10.039 19.772 19.771l.416 1.662.419-1.662c2.438-9.732 10.038-17.334 19.771-19.771l1.663-.416z"
          fill="#ffbe1b" />
      </g>
    </g>
    <g>
      <g>
        <path
          d="m359.002 400.091c-13.741-3.438-24.471-14.171-27.914-27.915l-.592-2.341-.587 2.341c-3.441 13.744-14.174 24.477-27.915 27.915l-2.344.593 2.344.588c13.741 3.441 24.474 14.174 27.915 27.915l.587 2.347.592-2.347c3.443-13.741 14.173-24.474 27.914-27.915l2.348-.588z"
          fill="#ffbe1b" />
      </g>
    </g>
    <g>
      <g>
        <path
          d="m147.171 271.677c-10.021-2.51-17.846-10.338-20.359-20.359l-.428-1.709-.432 1.709c-2.51 10.021-10.336 17.85-20.359 20.359l-1.709.436 1.709.432c10.023 2.506 17.85 10.334 20.359 20.354l.432 1.713.428-1.713c2.514-10.02 10.338-17.848 20.359-20.354l1.713-.432z"
          fill="#5d8ef9" />
      </g>
    </g>
  </g>
</svg>