<svg id="Icons" enable-background="new 0 0 512 512" height="48" viewBox="0 0 512 512" width="48"
  xmlns="http://www.w3.org/2000/svg">
  <g>
    <circle cx="256" cy="256" fill="#57409b" r="256" />
    <circle cx="256" cy="256" fill="#6c53a2" r="166.61" />
    <g>
      <g>
        <g>
          <path
            d="m272.647 176.743h-36.942c-21.298 0-40.093 10.726-51.27 27.072-6.813 9.962-10.8 22.014-10.8 34.993v34.383c0 34.277 27.788 62.065 62.07 62.065h36.942z"
            fill="#f39e22" />
          <g>
            <path d="m173.633 247.556h65.445v16.888h-65.445z" fill="#ea792e" />
            <path d="m173.633 247.556h65.445v6.629h-65.445z" fill="#dd5e26" />
          </g>
          <g>
            <path
              d="m239.078 275.048v16.882h-62.561c-1.053-3.306-1.826-6.733-2.303-10.259-.302-2.171-.488-4.381-.548-6.623z"
              fill="#ea792e" />
            <path d="m239.078 275.048v6.623h-64.864c-.302-2.171-.488-4.381-.548-6.623z" fill="#dd5e26" />
          </g>
          <g>
            <path
              d="m254.984 302.534v16.888h-60.691c-3.427-3.065-6.508-6.508-9.179-10.264-1.508-2.111-2.884-4.326-4.118-6.623h73.988z"
              fill="#ea792e" />
            <path d="m254.984 302.534v6.623h-69.87c-1.508-2.111-2.884-4.326-4.118-6.623z" fill="#dd5e26" />
          </g>
          <g>
            <path d="m265.588 330.026v5.231h-29.882c-8.888 0-17.332-1.864-24.975-5.231z" fill="#ea792e" />
            <path d="m265.588 330.026v5.231h-29.882c-8.888 0-17.332-1.864-24.975-5.231z" fill="#dd5e26" />
          </g>
          <g>
            <path
              d="m239.078 220.07v16.882h-65.417c.104-3.504.493-6.925 1.157-10.259.143-.724.296-1.442.472-2.16l1.228-4.463z"
              fill="#ea792e" />
            <path d="m239.078 220.07v6.623h-64.261c.143-.724.296-1.442.472-2.16l1.228-4.463z" fill="#dd5e26" />
          </g>
          <g>
            <path
              d="m255.582 192.578v16.888h-74.59c1.047-1.952 2.199-3.838 3.443-5.653 1.091-1.59 2.254-3.131 3.482-4.611 1.957-2.363 4.09-4.578 6.377-6.623h61.288z"
              fill="#ea792e" />
            <path d="m255.582 192.578v6.623h-67.665c1.957-2.363 4.09-4.578 6.377-6.623z" fill="#dd5e26" />
          </g>
          <g>
            <path
              d="m268.346 179.288v2.687h-57.615c7.638-3.367 16.087-5.231 24.975-5.231h15.007c6.124 0 12.046.888 17.633 2.544z"
              fill="#ea792e" />
          </g>
        </g>
        <path
          d="m338.367 238.808v34.383c0 5.228-.647 10.302-1.866 15.153-6.76 26.95-31.149 46.912-60.204 46.912h-15.01c-34.283 0-62.07-27.788-62.07-62.065v-34.383c0-12.979 3.987-25.031 10.8-34.993 11.177-16.346 29.972-27.072 51.27-27.072h15.01c34.282 0 62.07 27.788 62.07 62.065z"
          fill="#f9c744" />
        <path
          d="m338.367 238.808v34.383c0 5.228-.647 10.302-1.866 15.153-9.162 3.128-18.886 4.809-28.959 4.809-48.142 0-88.299-38.365-97.524-89.338 11.177-16.346 29.972-27.072 51.27-27.072h15.01c34.281 0 62.069 27.788 62.069 62.065z"
          fill="#fad98f" />
        <path
          d="m293.768 206.845c-3.73 2.354-4.844 7.286-2.49 11.016l14.01 22.194c2.354 3.73 7.286 4.844 11.016 2.49 3.73-2.354 4.844-7.286 2.49-11.016l-14.01-22.194c-2.355-3.729-7.287-4.844-11.016-2.49z"
          fill="#faefdc" />
        <g>
          <path
            d="m275.64 183.678h-13.697c-19.435 0-36.586 9.787-46.784 24.703-6.217 9.091-9.855 20.088-9.855 31.931v31.375c0 31.278 25.356 56.635 56.639 56.635h13.697c26.513 0 48.768-18.215 54.936-42.807 1.113-4.427 1.703-9.057 1.703-13.827v-31.375c.001-31.279-25.356-56.635-56.639-56.635zm54.264 87.423c0 4.592-.568 9.049-1.639 13.31-5.938 23.672-27.36 41.206-52.881 41.206h-13.184c-30.113 0-54.52-24.408-54.52-54.516v-30.201c0-11.401 3.502-21.986 9.486-30.737 9.817-14.358 26.326-23.779 45.034-23.779h13.184c30.113 0 54.52 24.408 54.52 54.516z"
            fill="#dd5e26" />
          <path
            d="m275.384 186.384h-13.184c-18.707 0-35.217 9.421-45.034 23.779-5.984 8.751-9.486 19.336-9.486 30.737v30.201c0 30.108 24.408 54.516 54.52 54.516h13.184c25.521 0 46.943-17.534 52.881-41.206 1.071-4.261 1.639-8.718 1.639-13.31v-30.201c0-30.109-24.407-54.516-54.52-54.516zm48.875 83.322c0 4.168-.516 8.213-1.488 12.08-5.389 21.485-24.833 37.4-47.996 37.4h-11.966c-27.331 0-49.484-22.153-49.484-49.48v-27.411c0-10.347 3.179-19.955 8.61-27.897 8.91-13.031 23.895-21.582 40.874-21.582h11.966c27.331 0 49.484 22.153 49.484 49.48z"
            fill="#ea792e" />
        </g>
      </g>
      <g>
        <path
          d="m290.901 252.571h-.727l3.392-5.009h-.005c1.495-2.03 2.379-4.539 2.379-7.256v-5.49c0-6.775-5.49-12.265-12.265-12.265h-1.506v-14.452c0-2.356-1.91-4.271-4.271-4.271h-4.384c-2.361 0-4.271 1.915-4.271 4.271v14.452h-7.077v-14.452c0-2.356-1.91-4.271-4.271-4.271h-4.384c-2.361 0-4.271 1.915-4.271 4.271v14.452h-16.741c-2.361 0-4.271 1.91-4.271 4.271v4.384c0 2.361 1.91 4.271 4.271 4.271h9.423v41.046h-9.423c-2.361 0-4.271 1.91-4.271 4.271v4.384c0 2.361 1.91 4.271 4.271 4.271h16.741v14.452c0 2.356 1.91 4.271 4.271 4.271h4.384c.215 0 .425-.015.63-.046 2.064-.307 3.641-2.084 3.641-4.225v-14.452h7.077v14.452c0 2.356 1.91 4.271 4.271 4.271h4.384c.215 0 .425-.015.63-.046 2.064-.307 3.641-2.084 3.641-4.225v-14.452h8.732c4.005 0 7.651-1.562 10.35-4.128 2.904-2.735 4.717-6.627 4.717-10.939v-6.745c-.001-8.321-6.75-15.066-15.067-15.066zm-28.735-17.094h15.773c2.858 0 5.178 2.32 5.178 5.183v.855c0 2.33-1.536 4.292-3.641 4.947-.487.149-1.004.23-1.536.23h-15.773v-11.215zm28.31 34.045c0 2.668-1.49 4.988-3.687 6.171-.988.527-2.115.83-3.313.83h-21.309v-15.159h21.309c3.866 0 7.001 3.134 7.001 7.001v1.157z"
          fill="#dd5e26" />
        <path
          d="m287.255 257.938h-7.221c4.215 0 7.933-2.125 10.14-5.367.62-.901 1.116-1.89 1.47-2.945.425-1.239.655-2.571.655-3.954v-5.49c0-6.775-5.49-12.265-12.265-12.265h-1.506v-14.452c0-2.356-1.91-4.271-4.271-4.271h-4.389c-.21 0-.42.015-.625.046v18.677h-10.719v-14.452c0-2.356-1.915-4.271-4.271-4.271h-4.389c-.21 0-.42.015-.625.046v18.677h-20.387c-.21 0-.42.015-.625.046v3.242c0 2.361 1.91 4.271 4.271 4.271h9.423v46.413h-13.069c-.21 0-.42.015-.625.046v3.242c0 2.361 1.91 4.271 4.271 4.271h16.741v14.452c0 2.356 1.91 4.271 4.271 4.271h4.384c.215 0 .425-.015.63-.046v-18.677h10.719v14.452c0 2.356 1.91 4.271 4.271 4.271h4.384c.215 0 .425-.015.63-.046v-18.677h12.373c4.005 0 7.651-1.562 10.35-4.128.691-1.726 1.07-3.605 1.07-5.572v-6.745c0-8.32-6.744-15.065-15.066-15.065zm-28.73-22.461h19.414c2.858 0 5.178 2.32 5.178 5.183v.855c0 10.135-4.886 10.545-8.824 10.545h-15.768zm31.951 34.045c0 9.981-2.427 12.368-10.642 12.368h-21.309v-20.526h24.95c3.866 0 7.001 3.134 7.001 7.001z"
          fill="#ea792e" />
      </g>
    </g>
    <g>
      <path
        d="m386.3 398.17c-51.965 51.574-53.097 97.781-159.371 95.219-6.853.021-13.753.15-20.569.541-10.167.661-20.621 1.562-30.11 5.4-27.128-8.878-52.571-22.309-75.14-39.49 56.336-57.979 88.854-86.226 124.13-78.579 5.92-.001 14.86-5.441 22.06-10.681 6.66-4.81 11.84-9.45 11.84-9.45 3.6-3.6 6.94-5.52 9.87-6.16 7.96-1.74 12.91 5.95 12.03 14.75-.45 4.61-2.49 9.51-6.53 13.55-5.69 5.69-48.13 30.83-48.13 30.83 3.534-.025 51.819.018 63.62 0 23.23 0 43.05-51.81 65.16-51.81 13.292.099 21.013 3.715 22.1 10.67l-2.55 3.05v.02c-1.306 1.605-7.27 8.713-8.7 10.43 4.536.347 28.2 2.187 20.29 11.71z"
        fill="#c17e62" />
      <path
        d="m383.35 396.86c-2.537-1.084-6.628-2.481-8.72-3.16-5.71-1.94-13.21-1.13-13.21-1.13 3.297-4.114 9.871-12.288 13.22-16.46-.6-.46-1.33-1.07-2.2-1.64-.002-.009-.027-.03-.04-.03-23.81-12.616-50.214 55.684-74.52 54.439-15.41.001-63.62.001-63.62.001s12.17-7.21 24.36-14.78c-16.42 0-32.24 0-32.24 0s42.44-25.14 48.13-30.83c4.04-4.04 6.08-8.94 6.53-13.55-3.73-.84-8.57.74-14.02 6.19 0 0-22.5 20.13-33.9 20.13-31.891-6.495-60.927 13.287-118.78 73.22 18.996 12.662 40.009 22.912 61.91 30.07 9.49-3.838 19.943-4.739 30.11-5.4 6.817-.392 13.716-.521 20.57-.54 106.259 2.568 107.424-43.656 159.37-95.22-.98-.46-1.97-.9-2.95-1.31z"
        fill="#a26d5a" />
      <path
        d="m384.04 390.15c-1.336 1.657-2.82 3.575-4.17 5.32.003.015-.008.019-.01.03h-.01c-49.253 64.417-81.471 93.588-133.181 90.408-47.089.002-70.269 1.722-83.769 8.632 4.39 1.72 8.84 3.31 13.35 4.79 13.178-5.158 27.704-5.343 41.71-5.84 114.95 2.808 110.735-36.334 167.429-94.361 3.774-3.502 3.302-6.874-1.349-8.979z"
        fill="#9175a7" />
      <path
        d="m377.258 372.96c-1.976 2.381-9.088 10.96-11.196 13.501 0 0-8.207 9.899-8.207 9.899-17.422 19.096-40.49 57.956-69.544 57.664 0 0 31.472-14.27 44.967-33.51 5.379-7.671 13.466-18.042 21.249-27.736 5.688-7.095 11.231-13.828 15.588-19.099h.007c1.776-2.155 3.553-4.28 4.731-5.69 2.405 2.546 2.405 4.971 2.405 4.971z"
        fill="#9175a7" />
      <path
        d="m268.021 367.39-5.168 5.168c-3.751 3.751-9.835 3.751-13.586 0-.091-.075-1.954-1.96-1.967-1.974 6.655-4.815 11.837-9.454 11.837-9.454 3.603-3.603 6.945-5.52 9.87-6.162 2.73 3.75 2.399 9.038-.986 12.422z"
        fill="#eea47d" />
      <path d="m375.016 376.299c-3.751-3.751-9.831-3.751-13.582 0l-5.167 5.167c-3.751 3.751-4.63 10.415 1.605 14.901z"
        fill="#d48d77" />
      <path d="m374.721 376.033c-1.336-1.231-2.931-2.022-4.603-2.357l-15.58 19.089c.794 1.464 1.535 2.505 3.333 3.602z"
        fill="#c2aacf" />
      <path
        d="m385.387 399.131c-6.775 6.796-12.648 13.325-17.922 19.564-.018-.022-1.896-1.879-1.981-1.974-3.683-3.631-3.792-9.837 0-13.586 0 0 5.168-5.168 5.168-5.168 2.427-2.425 5.832-3.289 8.94-2.566.847.195 1.677.502 2.446.931.007-.007.007-.007.007 0 1.25.627 2.371 1.804 3.342 2.799z"
        fill="#d48d77" />
      <path
        d="m385.387 399.131c-6.775 6.796-12.648 13.325-17.922 19.564-.955-.976-2.511-2.355-3.229-3.511 4.928-6.035 10.131-12.592 15.616-19.684h.007c0-.007.007-.014.014-.021 2.192.503 4.029 2.013 5.514 3.652z"
        fill="#c2aacf" />
    </g>
    <g>
      <path
        d="m410.89 52.16c-56.336 57.979-88.854 86.226-124.13 78.579-5.92.001-14.86 5.441-22.06 10.681-6.66 4.81-11.84 9.45-11.84 9.45-3.6 3.6-6.94 5.52-9.87 6.16-7.96 1.74-12.91-5.95-12.03-14.75.45-4.61 2.49-9.51 6.53-13.55 5.69-5.69 48.13-30.83 48.13-30.83-3.534.025-51.819-.018-63.62 0-23.23 0-43.05 51.81-65.16 51.81-13.292-.099-21.013-3.715-22.1-10.67l2.55-3.05v-.021c.378-.476 8.072-9.674 8.7-10.43-.094.004-.156-.023-.3-.02-5.158-.391-29.377-2.501-19.08-12.65 51.86-50.921 50.135-95.383 155.99-94.25 26.67-.001 42.55-1.541 53.15-5.951 27.128 8.879 52.571 22.311 75.14 39.492z"
        fill="#c17e62" />
      <path
        d="m349.1 17.46c-4.39-1.72-8.84-3.31-13.35-4.79-10.6 4.41-26.48 5.95-53.15 5.95-106.385-1.197-104.437 44.095-156.9 95.21 3.399 1.652 8.469 3.441 11.67 4.47 5.71 1.94 13.21 1.13 13.21 1.13-3.322 4.14-9.847 12.267-13.22 16.46.6.46 1.33 1.07 2.2 1.64.002.009.027.03.04.03 23.81 12.616 50.214-55.684 74.52-54.439 15.41-.001 63.62-.001 63.62-.001s-12.17 7.21-24.36 14.78h32.24s-42.44 25.14-48.13 30.83c-4.04 4.04-6.08 8.94-6.53 13.55 3.73.84 8.57-.74 14.02-6.19 0 0 22.5-20.13 33.9-20.13 31.637 6.613 61.284-13.542 118.78-73.22-15.13-10.07-31.39-18.58-48.56-25.28z"
        fill="#a26d5a" />
      <path
        d="m335.75 12.67c-10.6 4.41-26.48 5.95-53.15 5.95-105.839-1.142-104.145 43.337-155.99 94.25-3.898 3.595-3.154 6.93 1.35 8.98 1.336-1.658 2.82-3.574 4.17-5.32-.003-.015.008-.019.01-.03h.01c49.253-64.417 81.471-93.588 133.181-90.408 47.089-.002 70.269-1.722 83.769-8.632-4.39-1.72-8.84-3.31-13.35-4.79z"
        fill="#9175a7" />
      <path
        d="m134.742 139.04c1.976-2.381 9.088-10.96 11.196-13.501 0 0 8.207-9.899 8.207-9.899 17.422-19.096 40.49-57.956 69.544-57.664 0 0-31.472 14.27-44.967 33.51-5.379 7.671-13.466 18.042-21.249 27.736-5.688 7.095-11.231 13.828-15.588 19.099h-.007c-1.776 2.155-3.553 4.28-4.731 5.69-2.405-2.546-2.405-4.971-2.405-4.971z"
        fill="#9175a7" />
      <path
        d="m243.979 144.61 5.168-5.168c3.751-3.751 9.835-3.751 13.586 0 .091.075 1.954 1.96 1.967 1.974-6.655 4.815-11.837 9.454-11.837 9.454-3.603 3.603-6.945 5.52-9.87 6.162-2.73-3.75-2.399-9.038.986-12.422z"
        fill="#eea47d" />
      <path d="m136.984 135.701c3.751 3.751 9.832 3.751 13.582 0l5.167-5.167c3.751-3.751 4.63-10.415-1.605-14.901z"
        fill="#d48d77" />
      <path d="m137.278 135.967c1.336 1.231 2.931 2.022 4.603 2.357l15.58-19.089c-.794-1.464-1.536-2.505-3.333-3.602z"
        fill="#c2aacf" />
      <path
        d="m126.613 112.869c6.775-6.796 12.648-13.325 17.922-19.564.018.022 1.896 1.879 1.981 1.974 3.683 3.631 3.792 9.837 0 13.586 0 0-5.168 5.168-5.168 5.168-2.427 2.425-5.832 3.289-8.94 2.566-.847-.195-1.677-.502-2.446-.931-.007.007-.007.007-.007 0-1.25-.627-2.371-1.804-3.342-2.799z"
        fill="#d48d77" />
      <path
        d="m126.613 112.869c6.775-6.796 12.648-13.325 17.922-19.564.955.976 2.511 2.355 3.229 3.511-4.928 6.035-10.131 12.592-15.616 19.684h-.007c0 .007-.007.014-.014.021-2.192-.503-4.029-2.013-5.514-3.652z"
        fill="#c2aacf" />
    </g>
    <g>
      <g>
        <path
          d="m486.105 299.438c-.286-.491-.632-.935-1.024-1.327-1.213-1.212-2.871-1.918-4.631-1.918l-16.661.001h-.049v-100.794c0-18.679-15.196-33.876-33.876-33.876-3.59 0-6.5 2.91-6.5 6.5s2.91 6.5 6.5 6.5c11.511 0 20.876 9.365 20.876 20.876v100.793h-.049-16.662c-2.328 0-4.48 1.235-5.654 3.245-1.174 2.009-1.193 4.491-.05 6.518l23.211 41.185c1.162 2.062 3.342 3.334 5.706 3.334s4.544-1.274 5.705-3.333l23.211-41.186c1.141-2.027 1.122-4.509-.053-6.518z"
          fill="#53b976" />
        <g>
          <path
            d="m478.157 307.19c-3.132-1.808-7.138-.735-8.946 2.397l-11.401 19.747c-1.808 3.132-.735 7.138 2.397 8.946 3.132 1.808 7.138.735 8.946-2.397l11.401-19.747c1.808-3.132.735-7.138-2.397-8.946z"
            fill="#9acdae" />
        </g>
      </g>
      <g>
        <path
          d="m82.136 337.476c-11.511 0-20.876-9.365-20.876-20.876v-100.793h.049 16.661c1.76 0 3.419-.706 4.631-1.918.392-.392.738-.836 1.024-1.327 1.175-2.009 1.193-4.492.051-6.519l-23.211-41.186c-1.161-2.059-3.341-3.333-5.705-3.333s-4.544 1.272-5.706 3.334l-23.211 41.185c-1.143 2.027-1.124 4.509.05 6.518 1.175 2.011 3.327 3.245 5.654 3.245l16.662.001h.049v100.793c0 18.68 15.197 33.876 33.876 33.876 3.59 0 6.5-2.91 6.5-6.5s-2.908-6.5-6.498-6.5z"
          fill="#53b976" />
        <g>
          <path
            d="m75.676 204.81c-3.132 1.808-7.138.735-8.946-2.397l-11.401-19.747c-1.808-3.132-.735-7.138 2.397-8.946 3.132-1.808 7.138-.735 8.946 2.397l11.401 19.747c1.809 3.132.735 7.138-2.397 8.946z"
            fill="#9acdae" />
        </g>
      </g>
    </g>
  </g>
</svg>