<svg width="40" height="40" viewBox="0 0 40 40" fill="none" xmlns="http://www.w3.org/2000/svg">
  <path
    d="M35.0001 21.4C34.9363 21.0057 34.7328 20.6474 34.4269 20.3904C34.121 20.1334 33.733 19.9949 33.3335 20H26.6668C26.91 20.0032 27.151 19.953 27.3728 19.8531C27.5946 19.7532 27.7918 19.606 27.9507 19.4217C28.1095 19.2375 28.2261 19.0207 28.2922 18.7866C28.3583 18.5525 28.3724 18.3068 28.3335 18.0667L26.6668 8.0667C26.6029 7.67233 26.3995 7.31402 26.0936 7.05706C25.7877 6.80009 25.3996 6.66156 25.0001 6.6667H15.0001C14.6007 6.66156 14.2126 6.80009 13.9067 7.05706C13.6008 7.31402 13.3974 7.67233 13.3335 8.0667L11.6668 18.0667C11.6287 18.3061 11.6433 18.5509 11.7095 18.784C11.7757 19.0172 11.8919 19.2331 12.0501 19.4167C12.2084 19.6018 12.4054 19.7499 12.6271 19.8507C12.8488 19.9515 13.0899 20.0025 13.3335 20H6.66681C6.26733 19.9949 5.87929 20.1334 5.57337 20.3904C5.26746 20.6474 5.06403 21.0057 5.00014 21.4L3.33348 31.4C3.29537 31.6394 3.30992 31.8842 3.37613 32.1173C3.44233 32.3505 3.55859 32.5664 3.71681 32.75C3.87511 32.9351 4.07204 33.0833 4.29377 33.1841C4.51549 33.2848 4.7566 33.3358 5.00014 33.3334H18.3335C18.5742 33.3334 18.8121 33.2812 19.0308 33.1806C19.2494 33.0799 19.4437 32.933 19.6001 32.75C19.7584 32.5664 19.8746 32.3505 19.9408 32.1173C20.007 31.8842 20.0216 31.6394 19.9835 31.4L18.3168 21.4C18.2533 21.0085 18.0523 20.6525 17.7499 20.3958C17.4475 20.1392 17.0634 19.9989 16.6668 20H23.3335C22.934 19.9949 22.5459 20.1334 22.24 20.3904C21.9341 20.6474 21.7307 21.0057 21.6668 21.4L20.0001 31.4C19.962 31.6394 19.9766 31.8842 20.0428 32.1173C20.109 32.3505 20.2253 32.5664 20.3835 32.75C20.5418 32.9351 20.7387 33.0833 20.9604 33.1841C21.1822 33.2848 21.4233 33.3358 21.6668 33.3334H26.6668C27.1088 33.3334 27.5328 33.1578 27.8453 32.8452C28.1579 32.5327 28.3335 32.1087 28.3335 31.6667C28.3335 31.2247 28.1579 30.8008 27.8453 30.4882C27.5328 30.1756 27.1088 30 26.6668 30H23.6335L24.7501 23.3334H31.9168L33.0335 30H31.6668C31.2248 30 30.8009 30.1756 30.4883 30.4882C30.1757 30.8008 30.0001 31.2247 30.0001 31.6667C30.0001 32.1087 30.1757 32.5327 30.4883 32.8452C30.8009 33.1578 31.2248 33.3334 31.6668 33.3334H35.0001C35.2434 33.3365 35.4843 33.2864 35.7061 33.1865C35.9279 33.0866 36.1252 32.9393 36.284 32.7551C36.4428 32.5708 36.5594 32.3541 36.6255 32.12C36.6917 31.8859 36.7057 31.6402 36.6668 31.4L35.0001 21.4ZM6.96681 30L8.08348 23.3334H15.2501L16.3668 30H6.96681ZM15.3001 16.6667L16.4168 10H23.5835L24.7001 16.6667H15.3001Z"
    fill="#EB62D0"></path>
</svg>