<svg width="30" height="30" viewBox="0 0 30 30" fill="none" xmlns="http://www.w3.org/2000/svg">
  <path
    d="M22.2833 9.18334C23.091 9.71212 24.0346 9.99576 25 10C25.9889 10 26.9556 9.70676 27.7778 9.15735C28.6001 8.60794 29.2409 7.82705 29.6194 6.91342C29.9978 5.99979 30.0968 4.99446 29.9039 4.02455C29.711 3.05465 29.2348 2.16373 28.5355 1.46447C27.8362 0.765206 26.9453 0.289002 25.9754 0.0960758C25.0055 -0.0968503 24.0002 0.00216643 23.0865 0.380605C22.1729 0.759043 21.392 1.39991 20.8426 2.22215C20.2932 3.0444 20 4.0111 20 5C20.0045 5.50999 20.0888 6.01612 20.25 6.5L17.6666 9.11667C16.7019 8.50671 15.5575 8.2452 14.4236 8.37557C13.2896 8.50594 12.2344 9.02035 11.4333 9.83333L9.89997 9.33334C9.96784 9.00436 10.0014 8.66923 9.99997 8.33334C10.0044 7.20166 9.62475 6.10197 8.92315 5.21402C8.22154 4.32607 7.23946 3.70239 6.13745 3.44495C5.03544 3.1875 3.87869 3.31151 2.8563 3.79671C1.83391 4.28191 1.00636 5.09959 0.508922 6.11609C0.011488 7.13258 -0.126399 8.28776 0.117802 9.39278C0.362002 10.4978 0.973844 11.4873 1.85331 12.1995C2.73277 12.9117 3.82783 13.3045 4.95948 13.3137C6.09112 13.3229 7.19241 12.9479 8.0833 12.25L9.99997 12.8833C9.9918 13.0332 9.9918 13.1834 9.99997 13.3333C9.99997 14.6594 10.5267 15.9312 11.4644 16.8689C12.4021 17.8066 13.6739 18.3333 15 18.3333C16.326 18.3333 17.5978 17.8066 18.5355 16.8689C19.4732 15.9312 20 14.6594 20 13.3333C19.9886 12.8008 19.8987 12.2729 19.7333 11.7667L22.2833 9.18334ZM25 3.33334C25.3296 3.33334 25.6518 3.43108 25.9259 3.61422C26.2 3.79736 26.4136 4.05765 26.5398 4.3622C26.6659 4.66674 26.6989 5.00185 26.6346 5.32515C26.5703 5.64845 26.4116 5.94543 26.1785 6.17851C25.9454 6.4116 25.6484 6.57034 25.3251 6.63464C25.0018 6.69895 24.6667 6.66595 24.3622 6.5398C24.0576 6.41366 23.7973 6.20003 23.6142 5.92595C23.431 5.65187 23.3333 5.32964 23.3333 5C23.3333 4.55797 23.5089 4.13405 23.8215 3.82149C24.134 3.50893 24.5579 3.33334 25 3.33334ZM3.3333 8.33334C3.3333 8.0037 3.43105 7.68147 3.61418 7.40739C3.79732 7.1333 4.05762 6.91968 4.36216 6.79354C4.66671 6.66739 5.00182 6.63438 5.32512 6.69869C5.64842 6.763 5.94539 6.92174 6.17848 7.15482C6.41157 7.38791 6.5703 7.68488 6.63461 8.00819C6.69892 8.33149 6.66591 8.6666 6.53977 8.97114C6.41362 9.27569 6.2 9.53598 5.92592 9.71912C5.65183 9.90225 5.3296 10 4.99997 10C4.55794 10 4.13402 9.82441 3.82146 9.51185C3.5089 9.19929 3.3333 8.77536 3.3333 8.33334ZM15 15C14.6703 15 14.3481 14.9023 14.074 14.7191C13.7999 14.536 13.5863 14.2757 13.4602 13.9711C13.334 13.6666 13.301 13.3315 13.3653 13.0082C13.4296 12.6849 13.5884 12.3879 13.8215 12.1548C14.0545 11.9217 14.3515 11.763 14.6748 11.6987C14.9981 11.6344 15.3332 11.6674 15.6378 11.7935C15.9423 11.9197 16.2026 12.1333 16.3857 12.4074C16.5689 12.6815 16.6666 13.0037 16.6666 13.3333C16.6666 13.7754 16.491 14.1993 16.1785 14.5118C15.8659 14.8244 15.442 15 15 15Z"
    fill="#9568FF"></path>
  <path
    d="M22.2833 9.18334C23.091 9.71212 24.0346 9.99576 25 10C25.9889 10 26.9556 9.70676 27.7778 9.15735C28.6001 8.60794 29.2409 7.82705 29.6194 6.91342C29.9978 5.99979 30.0968 4.99446 29.9039 4.02455C29.711 3.05465 29.2348 2.16373 28.5355 1.46447C27.8362 0.765206 26.9453 0.289002 25.9754 0.0960758C25.0055 -0.0968503 24.0002 0.00216643 23.0865 0.380605C22.1729 0.759043 21.392 1.39991 20.8426 2.22215C20.2932 3.0444 20 4.0111 20 5C20.0045 5.50999 20.0888 6.01612 20.25 6.5L17.6666 9.11667C16.7019 8.50671 15.5575 8.2452 14.4236 8.37557C13.2896 8.50594 12.2344 9.02035 11.4333 9.83333L9.89997 9.33334C9.96784 9.00436 10.0014 8.66923 9.99997 8.33334C10.0044 7.20166 9.62475 6.10197 8.92315 5.21402C8.22154 4.32607 7.23946 3.70239 6.13745 3.44495C5.03544 3.1875 3.87869 3.31151 2.8563 3.79671C1.83391 4.28191 1.00636 5.09959 0.508922 6.11609C0.011488 7.13258 -0.126399 8.28776 0.117802 9.39278C0.362002 10.4978 0.973844 11.4873 1.85331 12.1995C2.73277 12.9117 3.82783 13.3045 4.95948 13.3137C6.09112 13.3229 7.19241 12.9479 8.0833 12.25L9.99997 12.8833C9.9918 13.0332 9.9918 13.1834 9.99997 13.3333C9.99997 14.6594 10.5267 15.9312 11.4644 16.8689C12.4021 17.8066 13.6739 18.3333 15 18.3333C16.326 18.3333 17.5978 17.8066 18.5355 16.8689C19.4732 15.9312 20 14.6594 20 13.3333C19.9886 12.8008 19.8987 12.2729 19.7333 11.7667L22.2833 9.18334ZM25 3.33334C25.3296 3.33334 25.6518 3.43108 25.9259 3.61422C26.2 3.79736 26.4136 4.05765 26.5398 4.3622C26.6659 4.66674 26.6989 5.00185 26.6346 5.32515C26.5703 5.64845 26.4116 5.94543 26.1785 6.17851C25.9454 6.4116 25.6484 6.57034 25.3251 6.63464C25.0018 6.69895 24.6667 6.66595 24.3622 6.5398C24.0576 6.41366 23.7973 6.20003 23.6142 5.92595C23.431 5.65187 23.3333 5.32964 23.3333 5C23.3333 4.55797 23.5089 4.13405 23.8215 3.82149C24.134 3.50893 24.5579 3.33334 25 3.33334ZM3.3333 8.33334C3.3333 8.0037 3.43105 7.68147 3.61418 7.40739C3.79732 7.1333 4.05762 6.91968 4.36216 6.79354C4.66671 6.66739 5.00182 6.63438 5.32512 6.69869C5.64842 6.763 5.94539 6.92174 6.17848 7.15482C6.41157 7.38791 6.5703 7.68488 6.63461 8.00819C6.69892 8.33149 6.66591 8.6666 6.53977 8.97114C6.41362 9.27569 6.2 9.53598 5.92592 9.71912C5.65183 9.90225 5.3296 10 4.99997 10C4.55794 10 4.13402 9.82441 3.82146 9.51185C3.5089 9.19929 3.3333 8.77536 3.3333 8.33334ZM15 15C14.6703 15 14.3481 14.9023 14.074 14.7191C13.7999 14.536 13.5863 14.2757 13.4602 13.9711C13.334 13.6666 13.301 13.3315 13.3653 13.0082C13.4296 12.6849 13.5884 12.3879 13.8215 12.1548C14.0545 11.9217 14.3515 11.763 14.6748 11.6987C14.9981 11.6344 15.3332 11.6674 15.6378 11.7935C15.9423 11.9197 16.2026 12.1333 16.3857 12.4074C16.5689 12.6815 16.6666 13.0037 16.6666 13.3333C16.6666 13.7754 16.491 14.1993 16.1785 14.5118C15.8659 14.8244 15.442 15 15 15Z"
    stroke="none"></path>
  <path
    d="M8.33329 15H3.33329C2.89127 15 2.46734 15.1756 2.15478 15.4882C1.84222 15.8007 1.66663 16.2246 1.66663 16.6667V28.3333C1.66663 28.7754 1.84222 29.1993 2.15478 29.5118C2.46734 29.8244 2.89127 30 3.33329 30H8.33329C8.77532 30 9.19924 29.8244 9.5118 29.5118C9.82436 29.1993 9.99996 28.7754 9.99996 28.3333V16.6667C9.99996 16.2246 9.82436 15.8007 9.5118 15.4882C9.19924 15.1756 8.77532 15 8.33329 15ZM6.66663 26.6667H4.99996V18.3333H6.66663V26.6667ZM28.3333 11.6667H23.3333C22.8913 11.6667 22.4673 11.8423 22.1548 12.1548C21.8422 12.4674 21.6666 12.8913 21.6666 13.3333V28.3333C21.6666 28.7754 21.8422 29.1993 22.1548 29.5118C22.4673 29.8244 22.8913 30 23.3333 30H28.3333C28.7753 30 29.1992 29.8244 29.5118 29.5118C29.8244 29.1993 30 28.7754 30 28.3333V23.3333C30 22.8913 29.8244 22.4674 29.5118 22.1548C29.1992 21.8423 28.7753 21.6667 28.3333 21.6667C27.8913 21.6667 27.4673 21.8423 27.1548 22.1548C26.8422 22.4674 26.6666 22.8913 26.6666 23.3333V26.6667H25V15H26.6666V18.3333C26.6666 18.7754 26.8422 19.1993 27.1548 19.5118C27.4673 19.8244 27.8913 20 28.3333 20C28.7753 20 29.1992 19.8244 29.5118 19.5118C29.8244 19.1993 30 18.7754 30 18.3333V13.3333C30 12.8913 29.8244 12.4674 29.5118 12.1548C29.1992 11.8423 28.7753 11.6667 28.3333 11.6667ZM18.3333 20H13.3333C12.8913 20 12.4673 20.1756 12.1548 20.4882C11.8422 20.8007 11.6666 21.2246 11.6666 21.6667V28.3333C11.6666 28.7754 11.8422 29.1993 12.1548 29.5118C12.4673 29.8244 12.8913 30 13.3333 30H18.3333C18.7753 30 19.1992 29.8244 19.5118 29.5118C19.8244 29.1993 20 28.7754 20 28.3333V21.6667C20 21.2246 19.8244 20.8007 19.5118 20.4882C19.1992 20.1756 18.7753 20 18.3333 20ZM16.6666 26.6667H15V23.3333H16.6666V26.6667Z"
    fill="#9568FF"></path>
  <path
    d="M8.33329 15H3.33329C2.89127 15 2.46734 15.1756 2.15478 15.4882C1.84222 15.8007 1.66663 16.2246 1.66663 16.6667V28.3333C1.66663 28.7754 1.84222 29.1993 2.15478 29.5118C2.46734 29.8244 2.89127 30 3.33329 30H8.33329C8.77532 30 9.19924 29.8244 9.5118 29.5118C9.82436 29.1993 9.99996 28.7754 9.99996 28.3333V16.6667C9.99996 16.2246 9.82436 15.8007 9.5118 15.4882C9.19924 15.1756 8.77532 15 8.33329 15ZM6.66663 26.6667H4.99996V18.3333H6.66663V26.6667ZM28.3333 11.6667H23.3333C22.8913 11.6667 22.4673 11.8423 22.1548 12.1548C21.8422 12.4674 21.6666 12.8913 21.6666 13.3333V28.3333C21.6666 28.7754 21.8422 29.1993 22.1548 29.5118C22.4673 29.8244 22.8913 30 23.3333 30H28.3333C28.7753 30 29.1992 29.8244 29.5118 29.5118C29.8244 29.1993 30 28.7754 30 28.3333V23.3333C30 22.8913 29.8244 22.4674 29.5118 22.1548C29.1992 21.8423 28.7753 21.6667 28.3333 21.6667C27.8913 21.6667 27.4673 21.8423 27.1548 22.1548C26.8422 22.4674 26.6666 22.8913 26.6666 23.3333V26.6667H25V15H26.6666V18.3333C26.6666 18.7754 26.8422 19.1993 27.1548 19.5118C27.4673 19.8244 27.8913 20 28.3333 20C28.7753 20 29.1992 19.8244 29.5118 19.5118C29.8244 19.1993 30 18.7754 30 18.3333V13.3333C30 12.8913 29.8244 12.4674 29.5118 12.1548C29.1992 11.8423 28.7753 11.6667 28.3333 11.6667ZM18.3333 20H13.3333C12.8913 20 12.4673 20.1756 12.1548 20.4882C11.8422 20.8007 11.6666 21.2246 11.6666 21.6667V28.3333C11.6666 28.7754 11.8422 29.1993 12.1548 29.5118C12.4673 29.8244 12.8913 30 13.3333 30H18.3333C18.7753 30 19.1992 29.8244 19.5118 29.5118C19.8244 29.1993 20 28.7754 20 28.3333V21.6667C20 21.2246 19.8244 20.8007 19.5118 20.4882C19.1992 20.1756 18.7753 20 18.3333 20ZM16.6666 26.6667H15V23.3333H16.6666V26.6667Z"
    stroke="none"></path>
</svg>